<svg xmlns="http://www.w3.org/2000/svg" viewBox="0 0 360 104" enable-background="new 0 0 360 104"><path fill="#231F20" d="M12.6 48.8c0 1.4 1.1 2.5 2.5 2.5h3.3C28 51.2 31 46.3 31 32c0-7.1-.5-11-1.9-13.7-1.6-3-4.7-4.4-10.2-4.4h-4.1c-1.4 0-2.5 1.1-2.5 2.5v32.4h.3zm5-46.7c10.2 0 14.8 1.6 19.5 7.1 4.1 5.2 5.8 11.3 5.8 22.8 0 13.7-1.6 20.3-6.3 25-4.7 4.7-10.4 6.6-18.4 6.6H2.5c-1.4 0-2.5-1.1-2.5-2.5V4.6c0-1.4 1.1-2.5 2.5-2.5h15.1zM109.2 2.1c1.4 0 2.5 1.1 2.5 2.5v37.3c0 6.3-.8 9.6-3 13.4-3.6 5.5-9.9 9.1-17 9.1-7.7 0-14-4.1-17.3-11.3C73.3 50.7 73 48.8 73 43v-6.6c0-1.4 1.1-2.5 2.5-2.5h6.6c1.4 0 2.5 1.1 2.5 2.5v6.9c0 3.6.8 5.8 2.7 7.7 1.6 1.4 3.3 1.9 5.2 1.9 2.5 0 4.9-1.4 6.3-3 .8-1.6 1.1-2.7 1.1-8V4.6c0-1.4 1.1-2.5 2.5-2.5h6.8zM191.3 4.6v6.9c0 1.4-1.1 2.5-2.5 2.5H168c-1.4 0-2.5 1.1-2.5 2.5v7.4c0 1.4 1.1 2.5 2.5 2.5h13.7c1.4 0 2.5 1.1 2.5 2.5V36c0 1.4-1.1 2.5-2.5 2.5H168c-1.4 0-2.5 1.1-2.5 2.5v8.5c0 1.4 1.1 2.5 2.5 2.5h21.7c1.4 0 2.5 1.1 2.5 2.5v6.9c0 1.4-1.1 2.5-2.5 2.5h-34c-1.4 0-2.5-1.1-2.5-2.5V4.6c0-1.4 1.1-2.5 2.5-2.5h33.2c1.3 0 2.4 1.1 2.4 2.5"/><path fill="#231F20" d="M244.3 48.8c0 1.4 1.1 2.5 2.5 2.5h3.3c9.6 0 12.6-4.9 12.6-19.2 0-7.1-.5-11-1.9-13.7-1.6-3-4.7-4.4-10.2-4.4h-4.1c-1.4 0-2.5 1.1-2.5 2.5v32.4h.3zm5.2-46.7c10.2 0 14.8 1.6 19.5 7.1 4.1 4.9 5.8 11 5.8 22.5 0 13.7-1.6 20.3-6.3 25S258 63.3 250 63.3h-15.4c-1.4 0-2.5-1.1-2.5-2.5V4.6c0-1.4 1.1-2.5 2.5-2.5h14.9z"/><path fill="#00A9B4" d="M72.7 86.4v-6c0-1.1.8-2.2 2.2-2.2H110c1.1 0 2.2.8 2.2 2.2v6c0 1.1-.8 2.2-2.2 2.2H74.9c-1.3-.3-2.2-1.1-2.2-2.2"/><g fill="#BFBFBF"><path d="M160 85h-6.2v-1.4h13.9V85h-6.2v16.9H160V85zM172 83.6h1.6v8.1h9.9v-8.1h1.6v18.3h-1.6v-8.8h-9.9v8.8H172V83.6zM190.9 83.6h11.4V85h-9.8v6.7h8.1v1.4h-8.1v7.3h9.8v1.4h-11.5V83.6zM215 83.6h11.3V85h-9.6v6.7h7.9v1.4h-7.9v8.7H215V83.6zM233.9 83.5h1.5l6.7 18.3h-1.7l-2.1-5.8h-7.6l-2.1 5.8H227l6.9-18.3zm4.1 11.2l-3.3-9.3-3.4 9.3h6.7zM246.6 83.6h2l6.1 11.2 5.9-11.2h2.1v18.3h-1.6V86.4h-.1L255.2 97H254l-5.8-10.5h-.1V102h-1.6V83.6zM268.4 83.6h1.6v18.3h-1.6V83.6zM275.7 83.6h1.6v16.9h9.6v1.4h-11.3V83.6zM293.5 94.2l-5.9-10.6h1.8l4.9 9 4.8-9h1.8L295 94.2v7.7h-1.6v-7.7zM318.4 83.5h1.5l6.7 18.3H325l-2.1-5.8h-7.6l-2.1 5.8h-1.6l6.8-18.3zm4.1 11.2l-3.3-9.3-3.4 9.3h6.7zM331.1 83.6h6.3c3.6 0 5.8 2.2 5.8 5.4s-2.2 5.5-6.2 5.5h-4.3v7.4h-1.6V83.6zm5.5 9.5c3.1 0 4.9-1.4 4.9-4.1 0-2.5-1.8-4-4.4-4h-4.5v8.2h4zM347.9 83.6h6.3c3.6 0 5.8 2.2 5.8 5.4s-2.2 5.5-6.2 5.5h-4.3v7.4h-1.6V83.6zm5.5 9.5c3.1 0 4.9-1.4 4.9-4.1 0-2.5-1.8-4-4.4-4h-4.5v8.2h4z"/></g></svg>