<svg xmlns="http://www.w3.org/2000/svg" viewBox="-42 -7.7 100 31.4" enable-background="new -42 -7.7 100 31.4"><path fill="#231F20" d="M-37.5 9.3c0 .5.4.9.9.9h1.2c3.5 0 4.6-1.8 4.6-7 0-2.6-.2-4-.7-5-.6-1.1-1.7-1.6-3.7-1.6h-1.5c-.5 0-.9.4-.9.9V9.3zm1.8-17c3.7 0 5.4.6 7.1 2.6 1.5 1.9 2.1 4.1 2.1 8.3 0 5-.6 7.4-2.3 9.1-1.7 1.7-3.8 2.4-6.7 2.4h-5.7c-.5 0-.9-.4-.9-.9V-6.8c0-.5.4-.9.9-.9h5.5zM-2.3-7.7c.5 0 .9.4.9.9V6.8c0 2.3-.3 3.5-1.1 4.9-1.3 2-3.6 3.3-6.2 3.3-2.8 0-5.1-1.5-6.3-4.1-.4-.9-.5-1.6-.5-3.7V4.8c0-.5.4-.9.9-.9h2.4c.5 0 .9.4.9.9v2.5c0 1.3.3 2.1 1 2.8.6.5 1.2.7 1.9.7.9 0 1.8-.5 2.3-1.1.3-.6.4-1 .4-2.9V-6.8c0-.5.4-.9.9-.9h2.5zM27.6-6.8v2.5c0 .5-.4.9-.9.9h-7.6c-.5 0-.9.4-.9.9V.2c0 .5.4.9.9.9h5c.5 0 .9.4.9.9v2.6c0 .5-.4.9-.9.9h-5c-.5 0-.9.4-.9.9v3.1c0 .5.4.9.9.9H27c.5 0 .9.4.9.9v2.5c0 .5-.4.9-.9.9H14.6c-.5 0-.9-.4-.9-.9V-6.8c0-.5.4-.9.9-.9h12.1c.5 0 .9.4.9.9"/><path fill="#231F20" d="M46.9 9.3c0 .5.4.9.9.9H49c3.5 0 4.6-1.8 4.6-7 0-2.6-.2-4-.7-5-.6-1.1-1.7-1.6-3.7-1.6h-1.5c-.5 0-.9.4-.9.9V9.3h.1zm1.9-17c3.7 0 5.4.6 7.1 2.6 1.5 1.8 2.1 4 2.1 8.2 0 5-.6 7.4-2.3 9.1-1.7 1.7-3.8 2.4-6.7 2.4h-5.6c-.5 0-.9-.4-.9-.9V-6.8c0-.5.4-.9.9-.9h5.4z"/><path fill="#00A9B4" d="M-15.6 23v-2.2c0-.4.3-.8.8-.8H-2c.4 0 .8.3.8.8V23c0 .4-.3.8-.8.8h-12.8c-.5-.1-.8-.4-.8-.8"/></svg>