<svg xmlns="http://www.w3.org/2000/svg" viewBox="0 0 261 300" enable-background="new 0 0 261 300"><g fill="#CECECE"><path d="M130.5 150.3c-41.4 0-75.1-33.7-75.1-75.1S89.1 0 130.5 0s75.1 33.7 75.1 75.1-33.7 75.2-75.1 75.2zm0-141.6c-36.6 0-66.4 29.8-66.4 66.4s29.8 66.4 66.4 66.4 66.4-29.8 66.4-66.4-29.8-66.4-66.4-66.4zM256.6 300H4.4C2 300 0 298 0 295.6c0-71.9 58.5-130.5 130.5-130.5 71.8 0 130.2 58.3 130.4 130v.4c.1 2.5-1.9 4.5-4.3 4.5zM8.9 291.3h243.3c-2.3-65.1-56-117.3-121.6-117.3S11.2 226.2 8.9 291.3z"/></g></svg>