<svg xmlns="http://www.w3.org/2000/svg" viewBox="0 0 300 300" enable-background="new 0 0 300 300"><g fill="#CECECE"><path d="M122 209.7c-1.2 0-2.3-.5-3.1-1.3l-43.8-43.8c-1.7-1.7-1.7-4.5 0-6.2 1.7-1.7 4.5-1.7 6.2 0l40.4 40.4 88.4-107c1.5-1.9 4.3-2.1 6.2-.6 1.9 1.5 2.1 4.3.6 6.2l-91.4 110.7c-.8.9-1.9 1.5-3.2 1.6h-.3zM150 300C67.3 300 0 232.7 0 150S67.3 0 150 0s150 67.3 150 150-67.3 150-150 150zm0-291.3C72.1 8.7 8.7 72.1 8.7 150S72.1 291.3 150 291.3 291.3 227.9 291.3 150 227.9 8.7 150 8.7z"/></g></svg>