<svg xmlns="http://www.w3.org/2000/svg" viewBox="-89.6 0 480.2 300" enable-background="new -89.6 0 480.2 300"><path fill="#CECECE" d="M386.2 21.8h-66.9V4.4c0-2.4-2-4.4-4.4-4.4H166.1c-6.8 0-12.2 5.9-15.6 11.1-.3-.5-.6-1-1-1.5-4.7-6.4-9.6-9.6-14.6-9.6H-13.9c-2.4 0-4.4 2-4.4 4.4v17.4h-66.9c-2.4 0-4.4 2-4.4 4.4v269.4c0 2.4 2 4.4 4.4 4.4h471.4c2.4 0 4.3-2 4.4-4.4V26.2c0-2.4-2-4.4-4.4-4.4zM166.1 8.7h144.4v231.4H166.1c-4.6 0-8.2 3.4-11.2 7.5V20.8c2.6-5.3 7.6-12.1 11.2-12.1zm-175.6 0h144.4c3.7 0 8.7 6.9 11.2 12.2v226.7c-3-4.1-6.6-7.5-11.2-7.5H-9.5V8.7zm391.3 282.6H-80.8V30.6h62.5v213.8c0 2.4 2 4.4 4.4 4.4h148.7c1.6 0 4.4 3.7 8.4 10.9 2.3 4.1 3.7 6.6 6.8 6.6h1c3.1 0 4.5-2.5 6.7-6.5 4-7.2 6.8-10.9 8.4-10.9h148.8c2.4 0 4.4-2 4.4-4.4V30.6h62.5v260.7z"/></svg>