<svg xmlns="http://www.w3.org/2000/svg" viewBox="200.5 0 199 350" enable-background="new 200.5 0 199 350"><g fill="#CECECE"><path d="M369.7 350H230.3c-16.4 0-29.7-13.3-29.7-29.7V29.7C200.7 13.3 214 0 230.3 0h139.3c16.4 0 29.7 13.3 29.7 29.7v290.7c0 16.3-13.3 29.6-29.6 29.6zM230.3 11.6c-10 0-18.1 8.1-18.1 18.1v290.7c0 10 8.1 18.1 18.1 18.1h139.3c10 0 18.1-8.1 18.1-18.1V29.7c0-10-8.1-18.1-18.1-18.1H230.3zM315.3 47.6h-30.7c-3.2 0-5.8-2.6-5.8-5.8s2.6-5.8 5.8-5.8h30.7c3.2 0 5.8 2.6 5.8 5.8s-2.6 5.8-5.8 5.8zM300 336.6c-10.8 0-19.5-8.8-19.5-19.5s8.8-19.5 19.5-19.5 19.5 8.8 19.5 19.5-8.7 19.5-19.5 19.5zm0-27.5c-4.4 0-8 3.6-8 8s3.6 8 8 8 8-3.6 8-8-3.6-8-8-8zM367.9 72.8v206.4H232.1V72.8h135.8m11.5-11.6H220.6v229.5h158.9V61.2h-.1z"/></g></svg>