<svg xmlns="http://www.w3.org/2000/svg" viewBox="0 0 301 300" enable-background="new 0 0 301 300"><g fill="#CECECE"><path d="M296.1.1H5C2.6.1.6 2.2.6 4.5v291.1C.6 298 2.7 300 5 300h291.1c2.4 0 4.4-2.1 4.4-4.3V4.5c0-2.4-2-4.4-4.4-4.4zm-4.4 8.6v72.6H9.2V8.7h282.5zM9.2 291.3v-201h282.4v201H9.2zM81.4 133.2c-12.5 0-22.6 10.1-22.6 22.6 0 12.5 10.1 22.6 22.6 22.6s22.5-10.1 22.6-22.6c0-12.5-10.1-22.6-22.6-22.6zm0 36.4c-7.6 0-13.8-6.2-13.8-13.8S73.9 142 81.4 142c7.6 0 13.8 6.2 13.8 13.8s-6.2 13.8-13.8 13.8zM150.5 133.2c-12.5 0-22.6 10.1-22.6 22.6 0 12.5 10.1 22.6 22.6 22.6s22.6-10.1 22.6-22.6c0-12.5-10.1-22.6-22.6-22.6zm0 36.4c-7.6 0-13.8-6.2-13.8-13.8s6.2-13.8 13.8-13.8c7.6 0 13.8 6.2 13.8 13.8s-6.2 13.8-13.8 13.8zM219.6 133.2c-12.5 0-22.6 10.1-22.6 22.6 0 12.5 10.1 22.6 22.6 22.6 12.5 0 22.6-10.1 22.6-22.6 0-12.5-10.2-22.6-22.6-22.6zm0 36.4c-7.6 0-13.8-6.2-13.8-13.8S212 142 219.6 142c7.8 0 13.9 6.2 13.8 13.8 0 7.5-6.3 13.8-13.8 13.8zM81.4 195.6c-12.5 0-22.6 10.1-22.6 22.6 0 12.5 10.1 22.6 22.6 22.6s22.5-10.1 22.6-22.6c0-12.6-10.1-22.6-22.6-22.6zm0 36.4c-7.6 0-13.8-6.2-13.8-13.8 0-7.6 6.2-13.8 13.8-13.8s13.8 6.2 13.8 13.8S89 232 81.4 232zM150.5 195.6c-12.5 0-22.6 10.1-22.6 22.6 0 12.5 10.1 22.6 22.6 22.6s22.6-10.1 22.6-22.6c0-12.6-10.1-22.6-22.6-22.6zm0 36.4c-7.6 0-13.8-6.2-13.8-13.8 0-7.6 6.2-13.8 13.8-13.8 7.6 0 13.8 6.2 13.8 13.8s-6.2 13.8-13.8 13.8zM219.6 195.6c-12.5 0-22.6 10.1-22.6 22.6 0 12.5 10.1 22.6 22.6 22.6 12.5 0 22.6-10.1 22.6-22.6 0-12.6-10.2-22.6-22.6-22.6zm0 36.4c-7.6 0-13.8-6.2-13.8-13.8 0-7.6 6.2-13.8 13.8-13.8 7.8 0 13.9 6.2 13.8 13.8 0 7.6-6.3 13.8-13.8 13.8z"/></g></svg>