<svg xmlns="http://www.w3.org/2000/svg" viewBox="0 0 301 300" enable-background="new 0 0 301 300"><g fill="#CECECE"><path d="M221.3 203c-2-1.3-4.7-.8-6.1 1.2-14.4 21.9-38.6 35-64.8 35-26.2 0-50.4-13.1-64.8-35.1-1.3-2-4-2.6-6.1-1.3-2 1.3-2.6 4-1.3 6.1 16 24.4 43 39 72.1 39 29.1 0 56-14.6 72.1-38.9 1.5-2 1-4.7-1.1-6zM150.5 0C67.7 0 .4 67.3.4 150s67.3 150 150.1 150 150.1-67.3 150.1-150S233.3 0 150.5 0zM290 127.2c-10.5-1.2-37-8-74.2-45.3C179 45.2 164.1 19.8 158.9 9c66.4 3.9 120.6 53.8 131.1 118.2zM144.2 8.9c-7.5 11.8-26.1 38.3-62.7 75-36.7 36.7-60.8 41.9-70.3 42.2C22.3 61.5 77.3 11.8 144.2 8.9zm6.3 282.4C72.6 291.3 9.2 227.9 9.2 150c0-5.1.3-10.2.8-15.1 3.9 0 9.6-.5 17.2-3 18.4-6 38.8-20.1 60.5-41.8 37-37 55.9-63.7 63.7-76.2 6.1 12.2 21.6 37.7 58.1 74.3 41.1 41.1 70.4 47.3 81.6 48 .4 4.6.7 9.2.7 13.9 0 77.8-63.4 141.2-141.3 141.2z"/><circle cx="68.4" cy="158.2" r="14.9"/><circle cx="232.6" cy="158.2" r="14.9"/></g></svg>