<svg xmlns="http://www.w3.org/2000/svg" viewBox="0 0 24 24" enable-background="new 0 0 24 24"><path fill="#fff" d="M12 0C5.4 0 0 5.4 0 12s5.4 12 12 12c6 0 11-4.5 11.9-10.3.1-.4.1-.8.1-1.2V12c0-6.6-5.4-12-12-12zm5.5 9.8v.3c0 3.4-2.6 7.4-7.4 7.4-1.5 0-2.8-.4-4-1.2h.6c1.2 0 2.3-.4 3.2-1.1-1.1 0-2.1-.8-2.4-1.8H8c.2 0 .5 0 .7-.1-1.2-.2-2.1-1.3-2.1-2.5.3.2.8.3 1.2.3-.6-.4-1.1-1.2-1.1-2.1 0-.5.1-.9.4-1.3 1.3 1.6 3.2 2.6 5.3 2.7 0-.2-.1-.4-.1-.6 0-1.4 1.2-2.6 2.6-2.6.7 0 1.4.3 1.9.8.6 0 1.2-.2 1.7-.5-.2.6-.6 1.1-1.1 1.4.5-.1 1-.2 1.5-.4-.4.5-.9 1-1.4 1.3z"/></svg>