<svg xmlns="http://www.w3.org/2000/svg" viewBox="0 0 263 300" enable-background="new 0 0 263 300"><g fill="#CECECE"><path d="M258.6 37.1h-50.1V4.4c0-2.4-2-4.4-4.4-4.4s-4.4 2-4.4 4.4v32.8h-63.9V4.4c0-2.4-2-4.4-4.4-4.4S127 2 127 4.4v32.8H63.3V4.4c0-2.4-2-4.4-4.4-4.4-2.4 0-4.4 2-4.4 4.4v32.8H4.4c-2.4 0-4.4 2-4.4 4.4v254.1c0 2.4 2 4.4 4.4 4.4h254.1c2.4 0 4.4-2 4.4-4.4V41.5c0-2.4-1.9-4.4-4.3-4.4zm-4.4 254.2H8.8V45.9h45.7v16.8c0 2.4 2 4.4 4.4 4.4 2.4 0 4.4-2 4.4-4.4V45.9h63.9v16.8c0 2.4 2 4.4 4.4 4.4s4.4-2 4.4-4.4V45.9h63.9v16.8c0 2.4 2 4.4 4.4 4.4s4.4-2 4.4-4.4V45.9h45.7v245.4zM54.3 110.5c-2.4 0-4.4 2-4.4 4.4s2 4.4 4.4 4.4h154.4c2.4 0 4.4-2 4.4-4.4s-2-4.4-4.4-4.4H54.3zM208.7 166.6H54.3c-2.4 0-4.4 2-4.4 4.4s2 4.4 4.4 4.4h154.4c2.4 0 4.4-2 4.4-4.4s-2-4.4-4.4-4.4zM208.7 222.8H54.3c-2.4 0-4.4 2-4.4 4.4s2 4.4 4.4 4.4h154.4c2.4 0 4.4-2 4.4-4.4s-2-4.4-4.4-4.4z"/></g></svg>