<svg xmlns="http://www.w3.org/2000/svg" viewBox="0 0 257 300" enable-background="new 0 0 257 300"><g fill="#CECECE"><path d="M203.8 123H53.2c-2.4 0-4.4 2-4.4 4.4s2 4.4 4.4 4.4h150.7c2.4 0 4.4-2 4.4-4.4s-2-4.4-4.5-4.4zM203.8 177.8H53.2c-2.4 0-4.4 2-4.4 4.4s2 4.4 4.4 4.4h150.7c2.4 0 4.4-2 4.4-4.4s-2-4.4-4.5-4.4zM203.8 232.6H53.2c-2.4 0-4.4 2-4.4 4.4s2 4.4 4.4 4.4h150.7c2.4 0 4.4-2 4.4-4.4s-2-4.4-4.5-4.4zM255.6 56.9L200 1.3c-.8-.8-2-1.3-3.1-1.3H4.5C2.1 0 .1 2 .1 4.4v291.3c0 2.4 2 4.4 4.4 4.4h248c2.4 0 4.4-2 4.4-4.4V60c0-1.2-.5-2.3-1.3-3.1zm-7.5 4.9v11.5h-64.6V8.7H195l53.1 53.1zM8.9 291.3V8.7h165.9v69c0 2.4 2 4.4 4.4 4.4h69v209.2H8.9z"/></g></svg>