<svg xmlns="http://www.w3.org/2000/svg" viewBox="-19.7 0 340.3 300" enable-background="new -19.7 0 340.3 300"><g fill="#CECECE"><path d="M316.2 69.7H152.1L152 4.4c0-2.5-1.9-4.4-4.4-4.4H28.4c-1 0-2.2.5-3 1.3s-1.3 1.9-1.3 3.1v65.3h-39.4c-2.5 0-4.4 1.9-4.4 4.4v221.4c0 2.5 1.9 4.4 4.4 4.4h331.6c2.5 0 4.3-1.9 4.3-4.4V74.2c0-2.5-2.1-4.5-4.4-4.5zM32.7 8.7H143l.1 60.9H32.8l-.1-60.9zm279.2 282.6H-10.9V78.6h322.8v212.7zM100.2 184.9c0 27.7 22.6 50.3 50.3 50.3s50.3-22.6 50.3-50.3-22.6-50.3-50.3-50.3-50.3 22.7-50.3 50.3zm50.3-41.6c22.9 0 41.6 18.7 41.6 41.6s-18.7 41.6-41.6 41.6-41.6-18.7-41.6-41.6 18.7-41.6 41.6-41.6z"/></g></svg>