<svg xmlns="http://www.w3.org/2000/svg" viewBox="213 0 717 576" enable-background="new 213 0 717 576"><g fill="#CECECE"><path d="M915.6 572H227.4c-7.9 0-14.4-6.5-14.4-14.4V16.4C213 8.5 219.5 2 227.4 2h688.2c7.9 0 14.4 6.5 14.4 14.4v541.2c0 7.9-6.5 14.4-14.4 14.4zM231 554h681V20H231v534zM222 87h699v18H222zM545 439c-.8 0-1.6-.1-2.4-.3-4.8-1.3-7.6-6.3-6.2-11.1l55-197c1.3-4.8 6.3-7.6 11.1-6.2 4.8 1.3 7.6 6.3 6.2 11.1l-55 197c-1.1 3.9-4.8 6.5-8.7 6.5zM482 435.5c-2.3 0-4.6-.9-6.4-2.6L372.5 329.8l103.1-103.1c3.5-3.5 9.2-3.5 12.7 0s3.5 9.2 0 12.7L398 329.8l90.4 90.4c3.5 3.5 3.5 9.2 0 12.7-1.8 1.7-4.1 2.6-6.4 2.6zM662.1 435.5c-2.3 0-4.6-.9-6.4-2.6-3.5-3.5-3.5-9.2 0-12.7l90.4-90.4-90.4-90.4c-3.5-3.5-3.5-9.2 0-12.7s9.2-3.5 12.7 0l103.1 103.1-103 103.1c-1.8 1.7-4.1 2.6-6.4 2.6z"/></g></svg>