<svg xmlns="http://www.w3.org/2000/svg" width="1200" height="96" viewBox="0 0 1200 96"><path d="M83.225 2.097v24.83h-2.46c-1.458-5.73-3.075-9.844-4.852-12.348-1.776-2.503-4.214-4.5-7.31-5.988-1.732-.812-4.762-1.218-9.09-1.218h-6.9V78.14c0 4.69.26 7.623.786 8.795.522 1.173 1.547 2.198 3.073 3.08 1.526.878 3.61 1.318 6.252 1.318H65.8v2.503H17.287v-2.503h3.075c2.688 0 4.852-.473 6.49-1.42 1.185-.63 2.12-1.713 2.803-3.248.5-1.083.75-3.924.75-8.524V7.375H23.71c-6.24 0-10.773 1.31-13.598 3.924-3.963 3.653-6.47 8.863-7.516 15.628H0V2.096h83.225zM126.546 49.726V78.14c0 4.69.26 7.623.786 8.795.522 1.173 1.547 2.198 3.074 3.08 1.525.878 3.587 1.318 6.184 1.318h3.075v2.503H91.22v-2.503h3.075c2.688 0 4.85-.473 6.49-1.42 1.185-.63 2.096-1.713 2.734-3.248.5-1.083.75-3.924.75-8.524V17.794c0-4.69-.25-7.622-.75-8.795-.502-1.172-1.516-2.198-3.042-3.08C98.952 5.04 96.89 4.6 94.295 4.6H91.22V2.097h48.445V4.6h-3.075c-2.688 0-4.852.473-6.49 1.42-1.186.633-2.12 1.715-2.803 3.248-.5 1.083-.75 3.924-.75 8.524v25.98h32.728V17.79c0-4.69-.25-7.62-.75-8.794-.502-1.172-1.527-2.198-3.076-3.08-1.55-.878-3.623-1.318-6.22-1.318h-3.005V2.097h48.377V4.6h-3.007c-2.733 0-4.897.473-6.49 1.42-1.186.633-2.12 1.715-2.802 3.248-.502 1.083-.752 3.924-.752 8.524V78.14c0 4.69.25 7.623.753 8.795.5 1.173 1.525 2.198 3.075 3.08 1.548.878 3.622 1.318 6.218 1.318h3.007v2.503h-48.377v-2.503h3.006c2.733 0 4.896-.473 6.492-1.42 1.184-.63 2.118-1.713 2.8-3.248.502-1.083.752-3.924.752-8.524V49.727h-32.73zM235.258 7.374V44.72h1.845c5.876 0 10.135-1.828 12.778-5.48 2.643-3.654 4.328-9.043 5.057-16.17h2.597v48.034h-2.597c-.546-5.232-1.697-9.516-3.45-12.854-1.755-3.337-3.793-5.58-6.116-6.73-2.322-1.15-5.694-1.726-10.112-1.726v25.844c0 5.052.216 8.142.65 9.27.432 1.127 1.24 2.052 2.425 2.772 1.184.722 3.098 1.083 5.74 1.083h5.535c8.655 0 15.59-1.984 20.807-5.954 5.215-3.97 8.962-10.014 11.24-18.132h2.528l-4.168 29.158h-80.082v-2.503h3.075c2.688 0 4.852-.473 6.49-1.42 1.185-.63 2.096-1.713 2.734-3.248.5-1.083.75-3.924.75-8.524V17.794c0-4.15-.113-6.698-.34-7.645-.457-1.578-1.3-2.796-2.53-3.653-1.73-1.262-4.1-1.894-7.105-1.894h-3.075V2.098h77.554v27.13h-2.597c-1.322-6.63-3.178-11.39-5.57-14.276-2.39-2.885-5.773-5.005-10.146-6.36-2.552-.81-7.334-1.217-14.35-1.217h-9.566zM376.7 91.332v2.503h-48.446v-2.503h3.075c2.686 0 4.85-.473 6.49-1.42 1.184-.63 2.095-1.713 2.733-3.248.5-1.083.752-3.924.752-8.524V17.793c0-4.69-.25-7.622-.752-8.795-.5-1.172-1.515-2.198-3.04-3.08-1.527-.878-3.588-1.318-6.184-1.318h-3.076V2.097H376.7V4.6h-3.075c-2.688 0-4.852.473-6.49 1.42-1.186.633-2.12 1.715-2.803 3.248-.5 1.083-.75 3.924-.75 8.524V78.14c0 4.69.26 7.623.784 8.795.523 1.173 1.548 2.198 3.076 3.08 1.525.878 3.587 1.318 6.184 1.318h3.074zM417.083 52.026v25.708c0 4.96.307 8.084.922 9.37.614 1.286 1.696 2.312 3.246 3.078 1.55.767 4.442 1.15 8.68 1.15v2.503h-47.42v-2.503c4.28 0 7.184-.394 8.71-1.183 1.526-.79 2.597-1.816 3.21-3.08.617-1.262.924-4.375.924-9.336V18.2c0-4.962-.307-8.086-.923-9.37-.613-1.287-1.696-2.312-3.244-3.08-1.55-.767-4.44-1.15-8.678-1.15V2.097h43.047c11.206 0 19.406.767 24.6 2.3 5.192 1.534 9.428 4.363 12.708 8.49 3.28 4.127 4.92 8.965 4.92 14.512 0 6.765-2.46 12.358-7.38 16.777-3.143 2.797-7.54 4.894-13.187 6.292L469.49 81.52c2.916 4.015 4.99 6.518 6.22 7.51 1.866 1.398 4.03 2.165 6.49 2.3v2.503h-29.177l-29.86-41.81h-6.08zm0-44.99v40.186h3.895c6.332 0 11.07-.575 14.212-1.725 3.144-1.15 5.614-3.224 7.414-6.224 1.8-3 2.7-6.912 2.7-11.738 0-6.99-1.653-12.155-4.955-15.493-3.304-3.337-8.622-5.006-15.956-5.006h-7.31zM532.217 91.332v2.503h-48.445v-2.503h3.075c2.688 0 4.852-.473 6.49-1.42 1.185-.63 2.096-1.713 2.734-3.248.5-1.083.752-3.924.752-8.524V17.793c0-4.69-.25-7.622-.75-8.795-.503-1.172-1.517-2.198-3.042-3.08-1.527-.878-3.587-1.318-6.184-1.318h-3.075V2.097h48.446V4.6h-3.075c-2.687 0-4.85.473-6.49 1.42-1.185.633-2.118 1.715-2.802 3.248-.5 1.083-.75 3.924-.75 8.524V78.14c0 4.69.26 7.623.785 8.795.523 1.173 1.548 2.198 3.075 3.08 1.525.878 3.587 1.318 6.184 1.318h3.075zM601.16 0l.753 30.58h-2.8c-1.322-7.668-4.568-13.836-9.738-18.503-5.17-4.67-10.76-7.003-16.775-7.003-4.646 0-8.326 1.23-11.036 3.687-2.71 2.46-4.065 5.29-4.065 8.492 0 2.03.478 3.834 1.434 5.413 1.32 2.12 3.44 4.217 6.354 6.292 2.14 1.488 7.083 4.126 14.827 7.916 10.842 5.277 18.152 10.26 21.933 14.95 3.736 4.692 5.604 10.06 5.604 16.102 0 7.668-3.02 14.265-9.054 19.79C592.564 93.238 584.9 96 575.608 96c-2.918 0-5.672-.293-8.27-.88-2.597-.586-5.854-1.69-9.772-3.314-2.187-.902-3.986-1.353-5.398-1.353-1.185 0-2.437.45-3.758 1.353-1.322.903-2.392 2.278-3.212 4.127h-2.528v-34.64h2.528c2.004 9.744 5.865 17.175 11.582 22.293 5.717 5.12 11.878 7.68 18.482 7.68 5.103 0 9.17-1.376 12.197-4.128 3.028-2.75 4.544-5.954 4.544-9.606 0-2.165-.58-4.262-1.744-6.292-1.16-2.03-2.927-3.957-5.294-5.785-2.37-1.826-6.56-4.205-12.572-7.137-8.428-4.104-14.486-7.6-18.176-10.486-3.69-2.886-6.525-6.11-8.507-9.675-1.98-3.563-2.97-7.486-2.97-11.77 0-7.307 2.71-13.532 8.13-18.673S563.125 0 571.37 0c3.006 0 5.922.36 8.746 1.083 2.14.542 4.75 1.545 7.825 3.01 3.075 1.467 5.228 2.2 6.456 2.2 1.187 0 2.12-.36 2.804-1.084.682-.722 1.318-2.46 1.913-5.21h2.048zM651.52 49.726V78.14c0 4.69.262 7.623.785 8.795.524 1.173 1.55 2.198 3.074 3.08 1.526.878 3.586 1.318 6.185 1.318h3.074v2.503h-48.446v-2.503h3.074c2.688 0 4.853-.473 6.492-1.42 1.184-.63 2.094-1.713 2.733-3.248.5-1.083.752-3.924.752-8.524V17.794c0-4.69-.25-7.622-.752-8.795-.502-1.172-1.517-2.198-3.04-3.08-1.528-.878-3.588-1.318-6.186-1.318h-3.074V2.097h48.445V4.6h-3.074c-2.688 0-4.853.473-6.492 1.42-1.184.633-2.12 1.715-2.8 3.248-.503 1.083-.753 3.924-.753 8.524v25.98h32.73V17.79c0-4.69-.252-7.62-.754-8.794-.5-1.172-1.527-2.198-3.074-3.08-1.55-.878-3.62-1.318-6.22-1.318h-3.005V2.097h48.377V4.6h-3.007c-2.732 0-4.896.473-6.492 1.42-1.183.633-2.115 1.715-2.8 3.248-.502 1.083-.753 3.924-.753 8.524V78.14c0 4.69.25 7.623.752 8.795.502 1.173 1.527 2.198 3.074 3.08 1.55.878 3.624 1.318 6.22 1.318h3.006v2.503h-48.377v-2.503h3.006c2.733 0 4.897-.473 6.492-1.42 1.184-.63 2.12-1.713 2.8-3.248.503-1.083.754-3.924.754-8.524V49.727h-32.73zM842.842 2.097v24.83h-2.46c-1.457-5.73-3.074-9.844-4.853-12.348-1.776-2.503-4.214-4.5-7.31-5.988-1.733-.812-4.763-1.218-9.09-1.218h-6.9V78.14c0 4.69.262 7.623.785 8.795.524 1.173 1.55 2.198 3.074 3.08 1.526.878 3.608 1.318 6.252 1.318h3.074v2.503h-48.513v-2.503h3.074c2.688 0 4.852-.473 6.492-1.42 1.182-.63 2.117-1.713 2.8-3.248.5-1.083.752-3.924.752-8.524V7.375h-6.697c-6.24 0-10.772 1.31-13.596 3.924-3.966 3.653-6.47 8.863-7.52 15.628h-2.595V2.096h83.227zM899.147 91.332v2.503H850.7v-2.503h3.077c2.685 0 4.85-.473 6.488-1.42 1.187-.63 2.097-1.713 2.733-3.248.502-1.083.753-3.924.753-8.524V17.793c0-4.69-.25-7.622-.752-8.795-.5-1.172-1.513-2.198-3.04-3.08-1.524-.878-3.587-1.318-6.182-1.318H850.7V2.097h48.447V4.6h-3.077c-2.688 0-4.85.473-6.49 1.42-1.185.633-2.117 1.715-2.803 3.248-.5 1.083-.75 3.924-.75 8.524V78.14c0 4.69.263 7.623.787 8.795.52 1.173 1.547 2.198 3.074 3.08 1.524.878 3.587 1.318 6.182 1.318h3.077zM969.047 62.58l25.145-60.482h37.718V4.6h-3.006c-2.733 0-4.92.474-6.56 1.422-1.14.632-2.05 1.69-2.733 3.18-.5 1.083-.752 3.9-.752 8.457v60.48c0 4.69.25 7.623.753 8.795.502 1.173 1.528 2.198 3.075 3.08 1.55.878 3.623 1.318 6.22 1.318h3.005v2.503h-48.377v-2.503h3.007c2.732 0 4.92-.473 6.56-1.42 1.138-.63 2.05-1.713 2.733-3.248.5-1.083.752-3.924.752-8.524V10.15l-35.53 83.687h-1.64l-36.08-83.078v64.61c0 4.51.113 7.283.342 8.32.592 2.256 1.88 4.093 3.86 5.514 1.983 1.42 5.092 2.13 9.326 2.13v2.504H905.16V91.33h.957c2.048.047 3.96-.28 5.74-.98 1.774-.698 3.118-1.634 4.03-2.807.91-1.173 1.615-2.818 2.117-4.94.093-.495.138-2.795.138-6.9V17.658c0-4.645-.25-7.544-.752-8.693-.502-1.15-1.527-2.165-3.074-3.045-1.55-.88-3.62-1.32-6.22-1.32h-2.937V2.098h37.854l26.033 60.483zM1072.566 7.374V44.72h1.843c5.877 0 10.134-1.828 12.777-5.48 2.643-3.654 4.328-9.043 5.058-16.17h2.595v48.034h-2.595c-.547-5.232-1.7-9.516-3.452-12.854-1.752-3.337-3.792-5.58-6.114-6.73-2.325-1.15-5.695-1.726-10.113-1.726v25.844c0 5.052.214 8.142.647 9.27.435 1.127 1.24 2.052 2.427 2.772 1.184.722 3.098 1.083 5.74 1.083h5.534c8.656 0 15.59-1.984 20.806-5.954 5.216-3.97 8.963-10.014 11.24-18.132h2.53l-4.17 29.158h-80.083v-2.503h3.077c2.686 0 4.85-.473 6.49-1.42 1.186-.63 2.096-1.713 2.732-3.248.502-1.083.752-3.924.752-8.524V17.794c0-4.15-.112-6.698-.34-7.645-.457-1.578-1.3-2.796-2.528-3.653-1.732-1.262-4.1-1.894-7.106-1.894h-3.077V2.098h77.555v27.13h-2.595c-1.32-6.63-3.18-11.39-5.57-14.276-2.39-2.885-5.773-5.005-10.146-6.36-2.55-.81-7.334-1.217-14.348-1.217h-9.566zM1193.51 0l.75 30.58h-2.8c-1.322-7.668-4.568-13.836-9.735-18.503-5.17-4.67-10.764-7.003-16.777-7.003-4.646 0-8.323 1.23-11.034 3.687-2.71 2.46-4.065 5.29-4.065 8.492 0 2.03.478 3.834 1.433 5.413 1.322 2.12 3.44 4.217 6.354 6.292 2.142 1.488 7.083 4.126 14.83 7.916 10.84 5.277 18.15 10.26 21.933 14.95 3.733 4.692 5.602 10.06 5.602 16.102 0 7.668-3.018 14.265-9.054 19.79-6.035 5.525-13.7 8.287-22.992 8.287-2.916 0-5.672-.293-8.268-.88-2.598-.586-5.854-1.69-9.77-3.314-2.188-.902-3.988-1.353-5.4-1.353-1.183 0-2.437.45-3.756 1.353-1.32.903-2.392 2.278-3.212 4.127h-2.527v-34.64h2.527c2.004 9.742 5.864 17.173 11.58 22.29 5.718 5.12 11.88 7.68 18.485 7.68 5.1 0 9.166-1.375 12.197-4.127 3.03-2.75 4.543-5.954 4.543-9.606 0-2.165-.58-4.262-1.742-6.292-1.16-2.03-2.928-3.957-5.297-5.785-2.367-1.826-6.56-4.205-12.572-7.137-8.428-4.104-14.486-7.6-18.175-10.486-3.692-2.886-6.526-6.11-8.508-9.675-1.98-3.563-2.973-7.486-2.973-11.77 0-7.307 2.71-13.532 8.13-18.673C1148.64 2.57 1155.473 0 1163.72 0c3.006 0 5.92.36 8.745 1.083 2.14.542 4.748 1.545 7.822 3.01 3.077 1.467 5.227 2.2 6.458 2.2 1.184 0 2.12-.36 2.8-1.084.686-.722 1.322-2.46 1.914-5.21h2.05z"/></svg>