<svg xmlns="http://www.w3.org/2000/svg" viewBox="0 0 350 50" enable-background="new 0 0 350 50"><path fill="#B1B8BA" d="M341.8 48.8V44l1.2-1.3h4.8L349 44v4.8l-1.2 1.3H343l-1.2-1.3zm5.6.6l.8-.8v-4.4l-.8-.8h-4l-.8.8v4.4l.8.8h4zm-4-1.5h.4v-3h-.4v-.7h3l.7.7V46l-.5.5.5.5v.9h.4v.7h-.8l-.4-.4v-1l-.3-.3h-1.3V48h.5v.7h-1.7v-.8zm2.6-1.7l.3-.3v-.7l-.3-.3h-1.4v1.3h1.4z"/><path fill="#56B86A" d="M0 41.6v-6.2h19.2v2.3l1.4 1.3H53l1.1-1.1v-6.4l-.8-.8H8.4L.3 22.6V9.1L9.5-.1h55L73 8.4v6.2H53.8v-2.4l-1.4-1.4H20.6l-1.1 1.1v6.3l.7.7h44.9l8.2 8.1v13.9L64 50.1H8.5z"/><path fill="#B1B8BA" d="M121.4 39.2h9.6l-12.6-8.3-12.7 8.3h9.3v10.9H76.7V39.2H83l23.2-14-21.4-14.4h-7.4V-.1h37.5v10.9h-9.2l12.7 7.6 12.6-7.6h-9.2V-.1h37.5v10.9h-7.5l-23.3 13.8 25.2 14.6h6.3v10.9h-38.6z"/><path fill="#3DA6DD" d="M163.4 41.6v-6.2h19.3v2.3L184 39h32.4l1.1-1.1v-6.4l-.7-.8h-44.9l-8.2-8.1V9.1L173-.1h54.9l8.5 8.5v6.2h-19.2v-2.4l-1.4-1.4H184l-1.1 1.1v6.3l.8.7h44.9l8.1 8.1v13.9l-9.2 9.2H172z"/><path fill="#F07C47" d="M244.4 10.8h-5.6V-.1h33.5v10.9h-9.4l7.8 26.3 13-37.2h24l13 37.2 7.8-26.3h-9.4V-.1H350v10.9h-5.6l-12 39.3h-25.7l-12-37.1-12 37.1h-26.3z"/></svg>