<svg xmlns="http://www.w3.org/2000/svg" viewBox="0 0 25 25" enable-background="new 0 0 25 25"><path fill="#00A9B4" d="M12.5 0C5.6 0 0 5.6 0 12.5S5.6 25 12.5 25c6.3 0 11.5-4.7 12.4-10.7.1-.4.1-.8.1-1.3v-.5C25 5.6 19.4 0 12.5 0zm5.8 10.2v.3c0 3.6-2.7 7.7-7.7 7.7-1.5 0-2.9-.4-4.1-1.2h.6c1.3 0 2.4-.4 3.4-1.2-1.2 0-2.2-.8-2.5-1.9h.5c.2 0 .5 0 .7-.1-1.3 0-2.2-1.1-2.2-2.4.4.2.8.3 1.2.3-.7-.5-1.2-1.3-1.2-2.3 0-.5.1-1 .4-1.4 1.3 1.6 3.3 2.7 5.6 2.8 0-.2-.1-.4-.1-.6 0-1.5 1.2-2.7 2.7-2.7.8 0 1.5.3 2 .9.6-.1 1.2-.3 1.7-.7-.3.7-.7 1.2-1.3 1.6.5-.1 1.1-.2 1.6-.4-.4.5-.8 1-1.3 1.3z"/></svg>