<svg xmlns="http://www.w3.org/2000/svg" viewBox="0 0 612 792" enable-background="new 0 0 612 792"><path fill="#004750" d="M306.8 204.3c-18.2 0-33.3 13.4-35.9 30.9-.4 2.9 1.8 5.4 4.7 5.4h62.5c2.9 0 5.1-2.6 4.7-5.4-2.6-17.5-17.7-30.9-36-30.9z"/><path fill="#00A5B5" d="M439.2 306.3H174.5c-4.5 0-8.2-3.7-8.2-8.2v-19.9c0-4.5 3.7-8.2 8.2-8.2h264.8c4.5 0 8.2 3.7 8.2 8.2v19.9c0 4.6-3.7 8.2-8.3 8.2z"/><path fill="#FFC627" d="M439.2 379H174.5c-4.5 0-8.2-3.7-8.2-8.2v-19.9c0-4.5 3.7-8.2 8.2-8.2h264.8c4.5 0 8.2 3.7 8.2 8.2v19.9c0 4.5-3.7 8.2-8.3 8.2z"/><path fill="#95D600" d="M439.2 451.7H174.5c-4.5 0-8.2-3.7-8.2-8.2v-19.9c0-4.5 3.7-8.2 8.2-8.2h264.8c4.5 0 8.2 3.7 8.2 8.2v19.9c0 4.5-3.7 8.2-8.3 8.2z"/><path fill="#EF7622" d="M439.2 524.4H174.5c-4.5 0-8.2-3.7-8.2-8.2v-19.9c0-4.5 3.7-8.2 8.2-8.2h264.8c4.5 0 8.2 3.7 8.2 8.2v19.9c0 4.5-3.7 8.2-8.3 8.2z"/><path fill="#004750" d="M294.7 92.2C137.4 98.3 9.3 224.8 1.2 382-7.1 545 112.9 682.3 269 701.6c5.7.7 10.8-3.7 10.8-9.5v-4.2c0-.2.1-.3.1-.5V569.1c0-4.6-3.7-8.4-8.4-8.4h-19.6c-4.6 0-8.4 3.7-8.4 8.4v92.4c-121.3-29.1-211.2-140-207.7-270.9 3.7-140.4 116-255.9 256.2-263.4 156.2-8.3 286 116.4 286 270.8 0 127.9-89.1 235.4-208.4 263.7v-92.6c0-4.6-3.7-8.4-8.4-8.4h-19.6c-4.6 0-8.4 3.7-8.4 8.4v98.7h-.1v24.4c0 5.8 5.1 10.2 10.8 9.5C495.2 683.4 612.8 554.2 612.8 398c0-172.8-143.9-312.5-318.1-305.8z"/></svg>