<?xml version="1.0" encoding="utf-8"?>
<!-- Generator: Adobe Illustrator 18.1.1, SVG Export Plug-In . SVG Version: 6.00 Build 0)  -->
<!DOCTYPE svg PUBLIC "-//W3C//DTD SVG 1.1//EN" "http://www.w3.org/Graphics/SVG/1.1/DTD/svg11.dtd">
<svg version="1.1" id="Layer_1" xmlns="http://www.w3.org/2000/svg" xmlns:xlink="http://www.w3.org/1999/xlink" x="0px" y="0px"
	 viewBox="-42 -7.7 100 31.4" enable-background="new -42 -7.7 100 31.4" xml:space="preserve">
<g>
	<path fill="#231F20" d="M-37.5,9.3c0,0.5,0.4,0.9,0.9,0.9h1.2c3.5,0,4.6-1.8,4.6-7c0-2.6-0.2-4-0.7-5c-0.6-1.1-1.7-1.6-3.7-1.6
		h-1.5c-0.5,0-0.9,0.4-0.9,0.9V9.3z M-35.7-7.7c3.7,0,5.4,0.6,7.1,2.6c1.5,1.9,2.1,4.1,2.1,8.3c0,5-0.6,7.4-2.3,9.1
		c-1.7,1.7-3.8,2.4-6.7,2.4h-5.7c-0.5,0-0.9-0.4-0.9-0.9V-6.8c0-0.5,0.4-0.9,0.9-0.9H-35.7z"/>
	<path fill="#231F20" d="M-2.3-7.7c0.5,0,0.9,0.4,0.9,0.9V6.8c0,2.3-0.3,3.5-1.1,4.9C-3.8,13.7-6.1,15-8.7,15
		c-2.8,0-5.1-1.5-6.3-4.1c-0.4-0.9-0.5-1.6-0.5-3.7V4.8c0-0.5,0.4-0.9,0.9-0.9h2.4c0.5,0,0.9,0.4,0.9,0.9v2.5c0,1.3,0.3,2.1,1,2.8
		c0.6,0.5,1.2,0.7,1.9,0.7c0.9,0,1.8-0.5,2.3-1.1c0.3-0.6,0.4-1,0.4-2.9V-6.8c0-0.5,0.4-0.9,0.9-0.9H-2.3z"/>
	<path fill="#231F20" d="M27.6-6.8v2.5c0,0.5-0.4,0.9-0.9,0.9h-7.6c-0.5,0-0.9,0.4-0.9,0.9v2.7c0,0.5,0.4,0.9,0.9,0.9h5
		C24.6,1.1,25,1.5,25,2v2.6c0,0.5-0.4,0.9-0.9,0.9h-5c-0.5,0-0.9,0.4-0.9,0.9v3.1c0,0.5,0.4,0.9,0.9,0.9h7.9c0.5,0,0.9,0.4,0.9,0.9
		v2.5c0,0.5-0.4,0.9-0.9,0.9H14.6c-0.5,0-0.9-0.4-0.9-0.9V-6.8c0-0.5,0.4-0.9,0.9-0.9h12.1C27.2-7.7,27.6-7.3,27.6-6.8"/>
	<path id="underline" fill="#231F20" d="M46.9,9.3c0,0.5,0.4,0.9,0.9,0.9H49c3.5,0,4.6-1.8,4.6-7c0-2.6-0.2-4-0.7-5
		c-0.6-1.1-1.7-1.6-3.7-1.6h-1.5c-0.5,0-0.9,0.4-0.9,0.9V9.3L46.9,9.3z M48.8-7.7c3.7,0,5.4,0.6,7.1,2.6C57.4-3.3,58-1.1,58,3.1
		c0,5-0.6,7.4-2.3,9.1c-1.7,1.7-3.8,2.4-6.7,2.4h-5.6c-0.5,0-0.9-0.4-0.9-0.9V-6.8c0-0.5,0.4-0.9,0.9-0.9H48.8z"/>
	<path fill="#00A9B4" d="M-15.6,23v-2.2c0-0.4,0.3-0.8,0.8-0.8h12.8c0.4,0,0.8,0.3,0.8,0.8V23c0,0.4-0.3,0.8-0.8,0.8h-12.8
		C-15.3,23.7-15.6,23.4-15.6,23"/>
</g>
</svg>
