<?xml version="1.0" encoding="utf-8"?>
<!-- Generator: Adobe Illustrator 18.1.1, SVG Export Plug-In . SVG Version: 6.00 Build 0)  -->
<!DOCTYPE svg PUBLIC "-//W3C//DTD SVG 1.1//EN" "http://www.w3.org/Graphics/SVG/1.1/DTD/svg11.dtd">
<svg version="1.1" id="Layer_1" xmlns="http://www.w3.org/2000/svg" xmlns:xlink="http://www.w3.org/1999/xlink" x="0px" y="0px"
	 viewBox="0 0 257 300" enable-background="new 0 0 257 300" xml:space="preserve">
<g>
	<path fill="#CECECE" d="M203.8,123H53.2c-2.4,0-4.4,2-4.4,4.4s2,4.4,4.4,4.4h150.7c2.4,0,4.4-2,4.4-4.4S206.3,123,203.8,123z"/>
	<path fill="#CECECE" d="M203.8,177.8H53.2c-2.4,0-4.4,2-4.4,4.4s2,4.4,4.4,4.4h150.7c2.4,0,4.4-2,4.4-4.4S206.3,177.8,203.8,177.8z
		"/>
	<path fill="#CECECE" d="M203.8,232.6H53.2c-2.4,0-4.4,2-4.4,4.4s2,4.4,4.4,4.4h150.7c2.4,0,4.4-2,4.4-4.4S206.3,232.6,203.8,232.6z
		"/>
	<path fill="#CECECE" d="M255.6,56.9L200,1.3C199.2,0.5,198,0,196.9,0H4.5C2.1,0,0.1,2,0.1,4.4v291.3c0,2.4,2,4.4,4.4,4.4h248
		c2.4,0,4.4-2,4.4-4.4V60C256.9,58.8,256.4,57.7,255.6,56.9z M248.1,61.8v11.5h-64.6V8.7h11.5L248.1,61.8z M8.9,291.3V8.7h165.9v69
		c0,2.4,2,4.4,4.4,4.4h69v209.2H8.9z"/>
</g>
</svg>
