<?xml version="1.0" encoding="utf-8"?>
<!-- Generator: Adobe Illustrator 18.1.0, SVG Export Plug-In . SVG Version: 6.00 Build 0)  -->
<!DOCTYPE svg PUBLIC "-//W3C//DTD SVG 1.1//EN" "http://www.w3.org/Graphics/SVG/1.1/DTD/svg11.dtd">
<svg version="1.1" id="Layer_1" xmlns="http://www.w3.org/2000/svg" xmlns:xlink="http://www.w3.org/1999/xlink" x="0px" y="0px"
	 viewBox="0 0 24 24" enable-background="new 0 0 24 24" xml:space="preserve">
<path fill="#FFFFFF" d="M12,0C5.4,0,0,5.4,0,12c0,6.6,5.4,12,12,12c6,0,11-4.5,11.9-10.3c0.1-0.4,0.1-0.8,0.1-1.2c0-0.2,0-0.3,0-0.5
	C24,5.4,18.6,0,12,0z M17.5,9.8c0,0.1,0,0.2,0,0.3c0,3.4-2.6,7.4-7.4,7.4c-1.5,0-2.8-0.4-4-1.2c0.2,0,0.4,0,0.6,0
	c1.2,0,2.3-0.4,3.2-1.1c-1.1,0-2.1-0.8-2.4-1.8c0.2,0,0.3,0,0.5,0c0.2,0,0.5,0,0.7-0.1c-1.2-0.2-2.1-1.3-2.1-2.5c0,0,0,0,0,0
	c0.3,0.2,0.8,0.3,1.2,0.3C7.2,10.7,6.7,9.9,6.7,9c0-0.5,0.1-0.9,0.4-1.3c1.3,1.6,3.2,2.6,5.3,2.7c0-0.2-0.1-0.4-0.1-0.6
	c0-1.4,1.2-2.6,2.6-2.6c0.7,0,1.4,0.3,1.9,0.8C17.4,8,18,7.8,18.5,7.5c-0.2,0.6-0.6,1.1-1.1,1.4c0.5-0.1,1-0.2,1.5-0.4
	C18.5,9,18,9.5,17.5,9.8z"/>
</svg>
