<?xml version="1.0" encoding="utf-8"?>
<!-- Generator: Adobe Illustrator 18.1.1, SVG Export Plug-In . SVG Version: 6.00 Build 0)  -->
<!DOCTYPE svg PUBLIC "-//W3C//DTD SVG 1.1//EN" "http://www.w3.org/Graphics/SVG/1.1/DTD/svg11.dtd">
<svg version="1.1" id="Layer_1" xmlns="http://www.w3.org/2000/svg" xmlns:xlink="http://www.w3.org/1999/xlink" x="0px" y="0px"
	 viewBox="0 0 301 300" enable-background="new 0 0 301 300" xml:space="preserve">
<g>
	<path fill="#CECECE" d="M221.3,203c-2-1.3-4.7-0.8-6.1,1.2c-14.4,21.9-38.6,35-64.8,35c-26.2,0-50.4-13.1-64.8-35.1
		c-1.3-2-4-2.6-6.1-1.3c-2,1.3-2.6,4-1.3,6.1c16,24.4,43,39,72.1,39c29.1,0,56-14.6,72.1-38.9C223.9,207,223.4,204.3,221.3,203z"/>
	<path fill="#CECECE" d="M150.5,0C67.7,0,0.4,67.3,0.4,150c0,82.7,67.3,150,150.1,150s150.1-67.3,150.1-150
		C300.6,67.3,233.3,0,150.5,0z M290,127.2c-10.5-1.2-37-8-74.2-45.3C179,45.2,164.1,19.8,158.9,9C225.3,12.9,279.5,62.8,290,127.2z
		 M144.2,8.9c-7.5,11.8-26.1,38.3-62.7,75c-36.7,36.7-60.8,41.9-70.3,42.2C22.3,61.5,77.3,11.8,144.2,8.9z M150.5,291.3
		C72.6,291.3,9.2,227.9,9.2,150c0-5.1,0.3-10.2,0.8-15.1c3.9,0,9.6-0.5,17.2-3c18.4-6,38.8-20.1,60.5-41.8
		c37-37,55.9-63.7,63.7-76.2c6.1,12.2,21.6,37.7,58.1,74.3c41.1,41.1,70.4,47.3,81.6,48c0.4,4.6,0.7,9.2,0.7,13.9
		C291.8,227.9,228.4,291.3,150.5,291.3z"/>
	<circle fill="#CECECE" cx="68.4" cy="158.2" r="14.9"/>
	<circle fill="#CECECE" cx="232.6" cy="158.2" r="14.9"/>
</g>
</svg>
