<?xml version="1.0" encoding="utf-8"?>
<!-- Generator: Adobe Illustrator 18.1.1, SVG Export Plug-In . SVG Version: 6.00 Build 0)  -->
<!DOCTYPE svg PUBLIC "-//W3C//DTD SVG 1.1//EN" "http://www.w3.org/Graphics/SVG/1.1/DTD/svg11.dtd">
<svg version="1.1" id="Layer_1" xmlns="http://www.w3.org/2000/svg" xmlns:xlink="http://www.w3.org/1999/xlink" x="0px" y="0px"
	 viewBox="0 0 300 300" enable-background="new 0 0 300 300" xml:space="preserve">
<g>
	<path fill="#CECECE" d="M122,209.7c-1.2,0-2.3-0.5-3.1-1.3l-43.8-43.8c-1.7-1.7-1.7-4.5,0-6.2c1.7-1.7,4.5-1.7,6.2,0l40.4,40.4
		l88.4-107c1.5-1.9,4.3-2.1,6.2-0.6c1.9,1.5,2.1,4.3,0.6,6.2l-91.4,110.7c-0.8,0.9-1.9,1.5-3.2,1.6C122.1,209.7,122,209.7,122,209.7
		z"/>
	<path fill="#CECECE" d="M150,300C67.3,300,0,232.7,0,150S67.3,0,150,0s150,67.3,150,150S232.7,300,150,300z M150,8.7
		C72.1,8.7,8.7,72.1,8.7,150S72.1,291.3,150,291.3S291.3,227.9,291.3,150S227.9,8.7,150,8.7z"/>
</g>
</svg>
