<?xml version="1.0" encoding="utf-8"?>
<!-- Generator: Adobe Illustrator 18.1.1, SVG Export Plug-In . SVG Version: 6.00 Build 0)  -->
<!DOCTYPE svg PUBLIC "-//W3C//DTD SVG 1.1//EN" "http://www.w3.org/Graphics/SVG/1.1/DTD/svg11.dtd">
<svg version="1.1" id="Layer_1" xmlns="http://www.w3.org/2000/svg" xmlns:xlink="http://www.w3.org/1999/xlink" x="0px" y="0px"
	 viewBox="-89.6 0 480.2 300" enable-background="new -89.6 0 480.2 300" xml:space="preserve">
<path fill="#CECECE" d="M386.2,21.8h-66.9V4.4c0-2.4-2-4.4-4.4-4.4H166.1c-6.8,0-12.2,5.9-15.6,11.1c-0.3-0.5-0.6-1-1-1.5
	c-4.7-6.4-9.6-9.6-14.6-9.6H-13.9c-2.4,0-4.4,2-4.4,4.4v17.4h-66.9c-2.4,0-4.4,2-4.4,4.4v269.4c0,2.4,2,4.4,4.4,4.4h471.4
	c2.4,0,4.3-2,4.4-4.4V26.2C390.6,23.8,388.6,21.8,386.2,21.8z M166.1,8.7h144.4v231.4H166.1c-4.6,0-8.2,3.4-11.2,7.5V20.8
	C157.5,15.5,162.5,8.7,166.1,8.7z M-9.5,8.7h144.4c3.7,0,8.7,6.9,11.2,12.2v226.7c-3-4.1-6.6-7.5-11.2-7.5H-9.5V8.7z M381.8,291.3
	H-80.8V30.6h62.5v213.8c0,2.4,2,4.4,4.4,4.4h148.7c1.6,0,4.4,3.7,8.4,10.9c2.3,4.1,3.7,6.6,6.8,6.6c0.2,0,0.3,0,0.5,0s0.4,0,0.5,0
	c3.1,0,4.5-2.5,6.7-6.5c4-7.2,6.8-10.9,8.4-10.9h148.8c2.4,0,4.4-2,4.4-4.4V30.6h62.5V291.3z"/>
</svg>
