<?xml version="1.0" encoding="utf-8"?>
<!-- Generator: Adobe Illustrator 18.1.1, SVG Export Plug-In . SVG Version: 6.00 Build 0)  -->
<!DOCTYPE svg PUBLIC "-//W3C//DTD SVG 1.1//EN" "http://www.w3.org/Graphics/SVG/1.1/DTD/svg11.dtd">
<svg version="1.1" id="Layer_1" xmlns="http://www.w3.org/2000/svg" xmlns:xlink="http://www.w3.org/1999/xlink" x="0px" y="0px"
	 viewBox="0 0 261 300" enable-background="new 0 0 261 300" xml:space="preserve">
<g>
	<path fill="#CECECE" d="M130.5,150.3c-41.4,0-75.1-33.7-75.1-75.1S89.1,0,130.5,0s75.1,33.7,75.1,75.1S171.9,150.3,130.5,150.3z
		 M130.5,8.7c-36.6,0-66.4,29.8-66.4,66.4s29.8,66.4,66.4,66.4s66.4-29.8,66.4-66.4S167.1,8.7,130.5,8.7z"/>
	<path fill="#CECECE" d="M256.6,300C256.6,300,256.6,300,256.6,300H4.4C2,300,0,298,0,295.6c0-71.9,58.5-130.5,130.5-130.5
		c71.8,0,130.2,58.3,130.4,130c0,0.1,0,0.3,0,0.4C261,298,259,300,256.6,300z M8.9,291.3h243.3c-2.3-65.1-56-117.3-121.6-117.3
		S11.2,226.2,8.9,291.3z"/>
</g>
</svg>
