<?xml version="1.0" encoding="utf-8"?>
<!-- Generator: Adobe Illustrator 18.1.1, SVG Export Plug-In . SVG Version: 6.00 Build 0)  -->
<!DOCTYPE svg PUBLIC "-//W3C//DTD SVG 1.1//EN" "http://www.w3.org/Graphics/SVG/1.1/DTD/svg11.dtd">
<svg version="1.1" id="Layer_1" xmlns="http://www.w3.org/2000/svg" xmlns:xlink="http://www.w3.org/1999/xlink" x="0px" y="0px"
	 viewBox="0 0 263 300" enable-background="new 0 0 263 300" xml:space="preserve">
<g>
	<path fill="#CECECE" d="M258.6,37.1h-50.1V4.4c0-2.4-2-4.4-4.4-4.4s-4.4,2-4.4,4.4v32.8h-63.9V4.4c0-2.4-2-4.4-4.4-4.4
		s-4.4,2-4.4,4.4v32.8H63.3V4.4c0-2.4-2-4.4-4.4-4.4c-2.4,0-4.4,2-4.4,4.4v32.8H4.4c-2.4,0-4.4,2-4.4,4.4v254.1c0,2.4,2,4.4,4.4,4.4
		h254.1c2.4,0,4.4-2,4.4-4.4V41.5C262.9,39.1,261,37.1,258.6,37.1z M254.2,291.3H8.8V45.9h45.7v16.8c0,2.4,2,4.4,4.4,4.4
		c2.4,0,4.4-2,4.4-4.4V45.9h63.9v16.8c0,2.4,2,4.4,4.4,4.4s4.4-2,4.4-4.4V45.9h63.9v16.8c0,2.4,2,4.4,4.4,4.4s4.4-2,4.4-4.4V45.9
		h45.7V291.3z"/>
	<path fill="#CECECE" d="M54.3,110.5c-2.4,0-4.4,2-4.4,4.4s2,4.4,4.4,4.4h154.4c2.4,0,4.4-2,4.4-4.4s-2-4.4-4.4-4.4H54.3z"/>
	<path fill="#CECECE" d="M208.7,166.6H54.3c-2.4,0-4.4,2-4.4,4.4s2,4.4,4.4,4.4h154.4c2.4,0,4.4-2,4.4-4.4S211.1,166.6,208.7,166.6z
		"/>
	<path fill="#CECECE" d="M208.7,222.8H54.3c-2.4,0-4.4,2-4.4,4.4s2,4.4,4.4,4.4h154.4c2.4,0,4.4-2,4.4-4.4S211.1,222.8,208.7,222.8z
		"/>
</g>
</svg>
