<?xml version="1.0" encoding="utf-8"?>
<!-- Generator: Adobe Illustrator 18.1.1, SVG Export Plug-In . SVG Version: 6.00 Build 0)  -->
<!DOCTYPE svg PUBLIC "-//W3C//DTD SVG 1.1//EN" "http://www.w3.org/Graphics/SVG/1.1/DTD/svg11.dtd">
<svg version="1.1" id="Layer_1" xmlns="http://www.w3.org/2000/svg" xmlns:xlink="http://www.w3.org/1999/xlink" x="0px" y="0px"
	 viewBox="213 0 717 576" enable-background="new 213 0 717 576" xml:space="preserve">
<g>
	<path fill="#CECECE" d="M915.6,572H227.4c-7.9,0-14.4-6.5-14.4-14.4V16.4C213,8.5,219.5,2,227.4,2h688.2c7.9,0,14.4,6.5,14.4,14.4
		v541.2C930,565.5,923.5,572,915.6,572z M231,554h681V20H231V554z"/>
	<rect x="222" y="87" fill="#CECECE" width="699" height="18"/>
	<path fill="#CECECE" d="M545,439c-0.8,0-1.6-0.1-2.4-0.3c-4.8-1.3-7.6-6.3-6.2-11.1l55-197c1.3-4.8,6.3-7.6,11.1-6.2
		c4.8,1.3,7.6,6.3,6.2,11.1l-55,197C552.6,436.4,548.9,439,545,439z"/>
	<path fill="#CECECE" d="M482,435.5c-2.3,0-4.6-0.9-6.4-2.6L372.5,329.8l103.1-103.1c3.5-3.5,9.2-3.5,12.7,0c3.5,3.5,3.5,9.2,0,12.7
		L398,329.8l90.4,90.4c3.5,3.5,3.5,9.2,0,12.7C486.6,434.6,484.3,435.5,482,435.5z"/>
	<path fill="#CECECE" d="M662.1,435.5c-2.3,0-4.6-0.9-6.4-2.6c-3.5-3.5-3.5-9.2,0-12.7l90.4-90.4l-90.4-90.4
		c-3.5-3.5-3.5-9.2,0-12.7c3.5-3.5,9.2-3.5,12.7,0l103.1,103.1L668.5,432.9C666.7,434.6,664.4,435.5,662.1,435.5z"/>
</g>
</svg>
