<?xml version="1.0" encoding="utf-8"?>
<!-- Generator: Adobe Illustrator 18.1.1, SVG Export Plug-In . SVG Version: 6.00 Build 0)  -->
<!DOCTYPE svg PUBLIC "-//W3C//DTD SVG 1.1//EN" "http://www.w3.org/Graphics/SVG/1.1/DTD/svg11.dtd">
<svg version="1.1" id="Layer_1" xmlns="http://www.w3.org/2000/svg" xmlns:xlink="http://www.w3.org/1999/xlink" x="0px" y="0px"
	 viewBox="0 0 301 300" enable-background="new 0 0 301 300" xml:space="preserve">
<g>
	<path fill="#CECECE" d="M296.1,0.1H5c-2.4,0-4.4,2.1-4.4,4.4v291.1c0,2.4,2.1,4.4,4.4,4.4h291.1c2.4,0,4.4-2.1,4.4-4.3V4.5
		C300.5,2.1,298.5,0.1,296.1,0.1z M291.7,8.7v72.6H9.2V8.7H291.7z M9.2,291.3v-201h282.4v201H9.2z"/>
	<path fill="#CECECE" d="M81.4,133.2c-12.5,0-22.6,10.1-22.6,22.6c0,12.5,10.1,22.6,22.6,22.6s22.5-10.1,22.6-22.6
		C104,143.3,93.9,133.2,81.4,133.2z M81.4,169.6c-7.6,0-13.8-6.2-13.8-13.8S73.9,142,81.4,142c7.6,0,13.8,6.2,13.8,13.8
		S89,169.6,81.4,169.6z"/>
	<path fill="#CECECE" d="M150.5,133.2c-12.5,0-22.6,10.1-22.6,22.6c0,12.5,10.1,22.6,22.6,22.6s22.6-10.1,22.6-22.6
		C173.1,143.3,163,133.2,150.5,133.2z M150.5,169.6c-7.6,0-13.8-6.2-13.8-13.8s6.2-13.8,13.8-13.8c7.6,0,13.8,6.2,13.8,13.8
		S158.1,169.6,150.5,169.6z"/>
	<path fill="#CECECE" d="M219.6,133.2c-12.5,0-22.6,10.1-22.6,22.6c0,12.5,10.1,22.6,22.6,22.6c12.5,0,22.6-10.1,22.6-22.6
		C242.2,143.3,232,133.2,219.6,133.2z M219.6,169.6c-7.6,0-13.8-6.2-13.8-13.8S212,142,219.6,142c7.8,0,13.9,6.2,13.8,13.8
		C233.4,163.3,227.1,169.6,219.6,169.6z"/>
	<path fill="#CECECE" d="M81.4,195.6c-12.5,0-22.6,10.1-22.6,22.6c0,12.5,10.1,22.6,22.6,22.6s22.5-10.1,22.6-22.6
		C104,205.6,93.9,195.6,81.4,195.6z M81.4,232c-7.6,0-13.8-6.2-13.8-13.8c0-7.6,6.2-13.8,13.8-13.8s13.8,6.2,13.8,13.8
		S89,232,81.4,232z"/>
	<path fill="#CECECE" d="M150.5,195.6c-12.5,0-22.6,10.1-22.6,22.6c0,12.5,10.1,22.6,22.6,22.6s22.6-10.1,22.6-22.6
		C173.1,205.6,163,195.6,150.5,195.6z M150.5,232c-7.6,0-13.8-6.2-13.8-13.8c0-7.6,6.2-13.8,13.8-13.8c7.6,0,13.8,6.2,13.8,13.8
		S158.1,232,150.5,232z"/>
	<path fill="#CECECE" d="M219.6,195.6c-12.5,0-22.6,10.1-22.6,22.6c0,12.5,10.1,22.6,22.6,22.6c12.5,0,22.6-10.1,22.6-22.6
		C242.2,205.6,232,195.6,219.6,195.6z M219.6,232c-7.6,0-13.8-6.2-13.8-13.8c0-7.6,6.2-13.8,13.8-13.8c7.8,0,13.9,6.2,13.8,13.8
		C233.4,225.8,227.1,232,219.6,232z"/>
</g>
</svg>
