<?xml version="1.0" encoding="utf-8"?>
<!-- Generator: Adobe Illustrator 18.1.1, SVG Export Plug-In . SVG Version: 6.00 Build 0)  -->
<!DOCTYPE svg PUBLIC "-//W3C//DTD SVG 1.1//EN" "http://www.w3.org/Graphics/SVG/1.1/DTD/svg11.dtd">
<svg version="1.1" id="Layer_1" xmlns="http://www.w3.org/2000/svg" xmlns:xlink="http://www.w3.org/1999/xlink" x="0px" y="0px"
	 viewBox="200.5 0 199 350" enable-background="new 200.5 0 199 350" xml:space="preserve">
<g>
	<path fill="#CECECE" d="M369.7,350H230.3c-16.4,0-29.7-13.3-29.7-29.7V29.7C200.7,13.3,214,0,230.3,0h139.3
		c16.4,0,29.7,13.3,29.7,29.7v290.7C399.3,336.7,386,350,369.7,350z M230.3,11.6c-10,0-18.1,8.1-18.1,18.1v290.7
		c0,10,8.1,18.1,18.1,18.1h139.3c10,0,18.1-8.1,18.1-18.1V29.7c0-10-8.1-18.1-18.1-18.1H230.3z"/>
	<path fill="#CECECE" d="M315.3,47.6h-30.7c-3.2,0-5.8-2.6-5.8-5.8s2.6-5.8,5.8-5.8h30.7c3.2,0,5.8,2.6,5.8,5.8
		S318.5,47.6,315.3,47.6z"/>
	<path fill="#CECECE" d="M300,336.6c-10.8,0-19.5-8.8-19.5-19.5s8.8-19.5,19.5-19.5s19.5,8.8,19.5,19.5S310.8,336.6,300,336.6z
		 M300,309.1c-4.4,0-8,3.6-8,8s3.6,8,8,8s8-3.6,8-8S304.4,309.1,300,309.1z"/>
	<path fill="#CECECE" d="M367.9,72.8v206.4H232.1V72.8H367.9 M379.4,61.2H220.6v229.5h158.9V61.2L379.4,61.2z"/>
</g>
</svg>
