<?xml version="1.0" encoding="utf-8"?>
<!-- Generator: Adobe Illustrator 18.1.1, SVG Export Plug-In . SVG Version: 6.00 Build 0)  -->
<!DOCTYPE svg PUBLIC "-//W3C//DTD SVG 1.1//EN" "http://www.w3.org/Graphics/SVG/1.1/DTD/svg11.dtd">
<svg version="1.1" id="Layer_1" xmlns="http://www.w3.org/2000/svg" xmlns:xlink="http://www.w3.org/1999/xlink" x="0px" y="0px"
	 viewBox="-19.7 0 340.3 300" enable-background="new -19.7 0 340.3 300" xml:space="preserve">
<g>
	<path fill="#CECECE" d="M316.2,69.7H152.1l-0.1-65.3c0-2.5-1.9-4.4-4.4-4.4H28.4c-1,0-2.2,0.5-3,1.3s-1.3,1.9-1.3,3.1v65.3h-39.4
		c-2.5,0-4.4,1.9-4.4,4.4v221.4c0,2.5,1.9,4.4,4.4,4.4h331.6c2.5,0,4.3-1.9,4.3-4.4V74.2C320.6,71.7,318.5,69.7,316.2,69.7z
		 M32.7,8.7H143l0.1,60.9H32.8L32.7,8.7z M311.9,291.3H-10.9V78.6h322.8V291.3z"/>
	<path fill="#CECECE" d="M100.2,184.9c0,27.7,22.6,50.3,50.3,50.3s50.3-22.6,50.3-50.3s-22.6-50.3-50.3-50.3
		S100.2,157.3,100.2,184.9z M150.5,143.3c22.9,0,41.6,18.7,41.6,41.6s-18.7,41.6-41.6,41.6s-41.6-18.7-41.6-41.6
		S127.6,143.3,150.5,143.3z"/>
</g>
</svg>
