<?xml version="1.0" encoding="utf-8"?>
<!-- Generator: Adobe Illustrator 18.1.1, SVG Export Plug-In . SVG Version: 6.00 Build 0)  -->
<!DOCTYPE svg PUBLIC "-//W3C//DTD SVG 1.1//EN" "http://www.w3.org/Graphics/SVG/1.1/DTD/svg11.dtd">
<svg version="1.1" id="Layer_1" xmlns="http://www.w3.org/2000/svg" xmlns:xlink="http://www.w3.org/1999/xlink" x="0px" y="0px"
	 viewBox="0 0 350 50" enable-background="new 0 0 350 50" xml:space="preserve">
<g>
	<path fill="#B1B8BA" d="M341.8,48.8V44l1.2-1.3h4.8L349,44v4.8l-1.2,1.3H343L341.8,48.8z M347.4,49.4l0.8-0.8v-4.4l-0.8-0.8h-4
		l-0.8,0.8v4.4l0.8,0.8H347.4z M343.4,47.9h0.4v-3h-0.4v-0.7h3l0.7,0.7V46l-0.5,0.5l0.5,0.5v0.9h0.4v0.7h-0.8l-0.4-0.4v-1l-0.3-0.3
		h-1.3v1.1h0.5v0.7h-1.7V47.9z M346,46.2l0.3-0.3v-0.7l-0.3-0.3h-1.4v1.3H346z"/>
	<polygon fill="#56B86A" points="0,41.6 0,35.4 19.2,35.4 19.2,37.7 20.6,39 53,39 54.1,37.9 54.1,31.5 53.3,30.7 8.4,30.7 
		0.3,22.6 0.3,9.1 9.5,-0.1 64.5,-0.1 73,8.4 73,14.6 53.8,14.6 53.8,12.2 52.4,10.8 20.6,10.8 19.5,11.9 19.5,18.2 20.2,18.9 
		65.1,18.9 73.3,27 73.3,40.9 64,50.1 8.5,50.1 	"/>
	<polygon fill="#B1B8BA" points="121.4,39.2 131,39.2 118.4,30.9 105.7,39.2 115,39.2 115,50.1 76.7,50.1 76.7,39.2 83,39.2 
		106.2,25.2 84.8,10.8 77.4,10.8 77.4,-0.1 114.9,-0.1 114.9,10.8 105.7,10.8 118.4,18.4 131,10.8 121.8,10.8 121.8,-0.1 
		159.3,-0.1 159.3,10.8 151.8,10.8 128.5,24.6 153.7,39.2 160,39.2 160,50.1 121.4,50.1 	"/>
	<polygon fill="#3DA6DD" points="163.4,41.6 163.4,35.4 182.7,35.4 182.7,37.7 184,39 216.4,39 217.5,37.9 217.5,31.5 216.8,30.7 
		171.9,30.7 163.7,22.6 163.7,9.1 173,-0.1 227.9,-0.1 236.4,8.4 236.4,14.6 217.2,14.6 217.2,12.2 215.8,10.8 184,10.8 182.9,11.9 
		182.9,18.2 183.7,18.9 228.6,18.9 236.7,27 236.7,40.9 227.5,50.1 172,50.1 	"/>
	<polygon fill="#F07C47" points="244.4,10.8 238.8,10.8 238.8,-0.1 272.3,-0.1 272.3,10.8 262.9,10.8 270.7,37.1 283.7,-0.1 
		307.7,-0.1 320.7,37.1 328.5,10.8 319.1,10.8 319.1,-0.1 350,-0.1 350,10.8 344.4,10.8 332.4,50.1 306.7,50.1 294.7,13 282.7,50.1 
		256.4,50.1 	"/>
</g>
</svg>
