<?xml version="1.0" encoding="utf-8"?>
<!-- Generator: Adobe Illustrator 18.1.1, SVG Export Plug-In . SVG Version: 6.00 Build 0)  -->
<!DOCTYPE svg PUBLIC "-//W3C//DTD SVG 1.1//EN" "http://www.w3.org/Graphics/SVG/1.1/DTD/svg11.dtd">
<svg version="1.1" id="Layer_1" xmlns="http://www.w3.org/2000/svg" xmlns:xlink="http://www.w3.org/1999/xlink" x="0px" y="0px"
	 viewBox="0 0 25 25" enable-background="new 0 0 25 25" xml:space="preserve">
<path fill="#00A9B4" d="M12.5,0C5.6,0,0,5.6,0,12.5C0,19.4,5.6,25,12.5,25c6.3,0,11.5-4.7,12.4-10.7C25,13.9,25,13.5,25,13
	c0-0.2,0-0.3,0-0.5C25,5.6,19.4,0,12.5,0z M18.3,10.2c0,0.1,0,0.2,0,0.3c0,3.6-2.7,7.7-7.7,7.7c-1.5,0-2.9-0.4-4.1-1.2
	c0.2,0,0.4,0,0.6,0c1.3,0,2.4-0.4,3.4-1.2c-1.2,0-2.2-0.8-2.5-1.9c0.2,0,0.3,0,0.5,0c0.2,0,0.5,0,0.7-0.1C7.9,13.8,7,12.7,7,11.4
	c0,0,0,0,0,0c0.4,0.2,0.8,0.3,1.2,0.3C7.5,11.2,7,10.4,7,9.4c0-0.5,0.1-1,0.4-1.4c1.3,1.6,3.3,2.7,5.6,2.8c0-0.2-0.1-0.4-0.1-0.6
	c0-1.5,1.2-2.7,2.7-2.7c0.8,0,1.5,0.3,2,0.9c0.6-0.1,1.2-0.3,1.7-0.7C19,8.4,18.6,8.9,18,9.3c0.5-0.1,1.1-0.2,1.6-0.4
	C19.2,9.4,18.8,9.9,18.3,10.2z"/>
</svg>
