<?xml version="1.0" encoding="utf-8"?>
<!-- Generator: Adobe Illustrator 18.1.1, SVG Export Plug-In . SVG Version: 6.00 Build 0)  -->
<!DOCTYPE svg PUBLIC "-//W3C//DTD SVG 1.1//EN" "http://www.w3.org/Graphics/SVG/1.1/DTD/svg11.dtd">
<svg version="1.1" id="Web" xmlns="http://www.w3.org/2000/svg" xmlns:xlink="http://www.w3.org/1999/xlink" x="0px" y="0px"
	 viewBox="0 0 612 792" enable-background="new 0 0 612 792" xml:space="preserve">
<g>
	<path fill="#004750" d="M306.8,204.3c-18.2,0-33.3,13.4-35.9,30.9c-0.4,2.9,1.8,5.4,4.7,5.4h62.5c2.9,0,5.1-2.6,4.7-5.4
		C340.2,217.7,325.1,204.3,306.8,204.3z"/>
	<path fill="#00A5B5" d="M439.2,306.3H174.5c-4.5,0-8.2-3.7-8.2-8.2v-19.9c0-4.5,3.7-8.2,8.2-8.2h264.8c4.5,0,8.2,3.7,8.2,8.2v19.9
		C447.5,302.7,443.8,306.3,439.2,306.3z"/>
	<path fill="#FFC627" d="M439.2,379H174.5c-4.5,0-8.2-3.7-8.2-8.2v-19.9c0-4.5,3.7-8.2,8.2-8.2h264.8c4.5,0,8.2,3.7,8.2,8.2v19.9
		C447.5,375.3,443.8,379,439.2,379z"/>
	<path fill="#95D600" d="M439.2,451.7H174.5c-4.5,0-8.2-3.7-8.2-8.2v-19.9c0-4.5,3.7-8.2,8.2-8.2h264.8c4.5,0,8.2,3.7,8.2,8.2v19.9
		C447.5,448,443.8,451.7,439.2,451.7z"/>
	<path fill="#EF7622" d="M439.2,524.4H174.5c-4.5,0-8.2-3.7-8.2-8.2v-19.9c0-4.5,3.7-8.2,8.2-8.2h264.8c4.5,0,8.2,3.7,8.2,8.2v19.9
		C447.5,520.7,443.8,524.4,439.2,524.4z"/>
	<path fill="#004750" d="M294.7,92.2C137.4,98.3,9.3,224.8,1.2,382C-7.1,545,112.9,682.3,269,701.6c5.7,0.7,10.8-3.7,10.8-9.5v-4.2
		c0-0.2,0.1-0.3,0.1-0.5V569.1c0-4.6-3.7-8.4-8.4-8.4h-19.6c-4.6,0-8.4,3.7-8.4,8.4v92.4c-121.3-29.1-211.2-140-207.7-270.9
		c3.7-140.4,116-255.9,256.2-263.4C448.2,118.9,578,243.6,578,398c0,127.9-89.1,235.4-208.4,263.7v-92.6c0-4.6-3.7-8.4-8.4-8.4
		h-19.6c-4.6,0-8.4,3.7-8.4,8.4v98.7c0,0,0,0-0.1,0v24.4c0,5.8,5.1,10.2,10.8,9.5C495.2,683.4,612.8,554.2,612.8,398
		C612.8,225.2,468.9,85.5,294.7,92.2z"/>
</g>
</svg>
